<?xml version="1.0" encoding="UTF-8"?>
<!-- Created with Inkscape (http://www.inkscape.org/) -->
<svg width="1024" height="1024" version="1.1" viewBox="0 0 1024 1024" xmlns="http://www.w3.org/2000/svg">
 <g fill="#fff">
  <path d="m520.99 703.93c-27.358-1.7807-48.662-6.8809-70.161-16.797-28.33-13.066-50.908-32.911-67.884-59.666l-2.2278-3.511 3.736-7.8981c26.226-55.442 43.232-111.54 53.729-177.24l1.5366-9.6173-8.0327-8.0667c-10.322-10.366-14.738-15.234-23.358-25.751-7.4095-9.0396-14.558-18.619-17.478-23.42l-1.7538-2.8839 3.6461-4.532c4.2327-5.2611 9.827-11.578 10.278-11.605 0.1712-0.0103 3.1528 3.8872 6.6257 8.6611 10.365 14.247 24.506 31.206 34.352 41.196 1.5461 1.5688 7.6972 7.5444 13.669 13.279l10.858 10.427-0.72652 4.69c-7.863 50.762-21.838 105.38-37.106 145.02-1.9334 5.02-4.1492 10.796-4.9238 12.835-0.77461 2.0394-4.286 10.319-7.803 18.4l-6.3945 14.692 1.72 2.2743c3.4892 4.6138 11.511 12.983 17.317 18.069 16.911 14.811 37.972 25.722 59.749 30.955 8.596 2.0655 16.517 3.2381 17.192 2.545 0.2737-0.28108 1.0954-4.1049 1.826-8.4974 3.688-22.173 13.436-81.409 15.959-96.977 1.5761-9.7262 3.0756-18.162 3.3322-18.745 0.38733-0.88127 3.1442 1.4657 16.25 13.834 8.6807 8.1922 16.043 14.895 16.362 14.895 0.3537 0 0.52435-27.547 0.4393-70.935-0.0766-39.014 0.0609-71.232 0.30568-71.595 0.24464-0.36265 2.1782-1.7261 4.297-3.0298 21.082-12.972 42.537-32.733 59.048-54.384 21.163-27.751 35.743-62.172 41.117-97.069l1.332-8.6491-2.1325-3.2407c-4.2391-6.4421-13.732-17.377-21.546-24.821-14.327-13.647-28.819-24.137-44.937-32.528l-5.832-3.0362-7.8638 1.3165c-33.668 5.6364-58.047 12.707-74.228 21.527l-5.0128 2.7324 0.40695 2.4866c0.79181 4.8382 4.145 14.702 6.5569 19.288 4.4722 8.5032 11.486 13.711 21.529 15.985 6.0192 1.363 22.737 1.3572 30.434-0.0105 14.277-2.537 27.967-7.7763 36.212-13.858 1.4272-1.0528 2.7828-1.9142 3.0125-1.9142 0.76154 0-5.9897 11.038-10.022 16.386l-3.9677 5.2619 9.9442 8.429c11.27 9.5526 11.102 8.4911 1.5507 9.8192-26.75 3.7194-52.815 16.164-67.558 32.255-10.317 11.261-16.095 22.677-19.946 39.411l-1.4338 6.2306-1.4644-3.0619c-2.9433-6.1539-11.688-28.126-17.168-43.139-4.9719-13.619-5.6562-15.986-5.911-20.441-0.25648-4.4853-0.14268-5.2194 1.0355-6.6797 0.72807-0.90233 1.3237-1.7636 1.3237-1.914s-1.2117-0.43988-2.6927-0.64336c-1.7992-0.24729-5.672 0.13048-11.673 1.1385-10.164 1.7075-64.619 11.197-93.568 16.306-10.572 1.8656-19.467 3.3921-19.765 3.3921s-0.54335 0.62766-0.54335 1.3948c0 1.4068 8.6496 45.605 14.296 73.049 3.9879 19.384 3.9925 19.419 3.1762 24.319-1.4912 8.9504-7.7601 17.088-16.09 20.887-10.784 4.9181-23.933 3.7259-33.313-3.0203-6.835-4.9158-10.893-11.419-12.36-19.807-0.39656-2.2678-0.75944-4.1763-0.80638-4.2409-0.0468-0.0648-5.397 0.76663-11.889 1.8473-6.492 1.0807-13.776 1.9679-16.186 1.9715-8.252 0.0126-14.753-2.3567-20.224-7.3704-3.6749-3.3674-6.0611-7.8828-7.3497-13.907l-1.0267-4.8005-6.9047-0.31158c-12.54-0.56595-23.31-4.9127-32.04-12.932-9.8219-9.0222-11.24-12.541-16.5-40.95-14.398-77.766-14.367-77.553-12.424-85.959 2.361-10.212 10.516-20.544 20.661-26.178 3.0701-1.7046 8.411-3.8621 12.84-5.1867 0.62093-0.18569 0.96666-0.57813 0.7684-0.87209-0.19821-0.29395-0.62546-2.4501-0.94943-4.7914-1.1537-8.3384 1.2053-14.994 7.4999-21.16 5.3618-5.2522 9.1446-6.6635 24.556-9.1614 6.8426-1.1091 12.743-2.1184 13.112-2.243 0.45918-0.15508 0.28052-2.2665-0.56692-6.6998-1.0341-5.4094-1.1311-7.151-0.59079-10.596 1.7604-11.223 11.18-21.009 22.92-23.811 14.388-3.434 28.815 2.8989 35.285 15.488 1.7513 3.4076 3.7686 12.899 17.195 80.9 0.5291 2.6799 0.29435 2.665 10.686 0.67654 6.3113-1.2077 6.5296-1.2999 6.3321-2.675-0.11251-0.78334-1.6024-8.612-3.3108-17.397-1.7085-8.785-3.2648-18.164-3.4586-20.842-0.489-6.7598 0.94923-13.105 4.4566-19.661 10.524-19.672 33.936-28.474 55.254-20.774 1.7282 0.62417 3.2256 1.0584 3.3275 0.96496 0.10197-0.0934 1.5611-2.0923 3.2424-4.4419 4.4002-6.1491 11.279-11.897 17.67-14.764 6.8689-3.0816 11.427-4.0869 18.583-4.0989 7.2715-0.0122 11.744 0.99472 18.788 4.2296l5.4031 2.4815 1.9814-3.4761c4.6371-8.135 11.452-14.374 19.971-18.281 7.4753-3.4291 13.272-4.5409 21.653-4.1529 10.821 0.50098 19.337 3.6236 27.686 10.152 1.9812 1.5491 3.7895 2.8105 4.0186 2.8031 0.22903-9e-3 1.2569-1.0712 2.2841-2.3639 1.0272-1.2927 3.6528-3.71 5.8346-5.3718 17.613-13.415 42.289-12.432 58.287 2.3217 5.4364 5.0136 8.3873 9.1276 10.657 14.857 0.80935 2.0433 3.1693 12.494 5.2442 23.223 2.075 10.729 3.903 19.627 4.0624 19.773 0.35183 0.32246 17.853-2.8258 18.396-3.3092 0.21146-0.18829-0.41823-4.578-1.3993-9.7548-10.182-53.729-13.69-74.045-13.346-77.296 1.3906-13.147 12.511-24.138 26.223-25.919 13.853-1.7989 27.834 5.702 32.661 17.522 0.70697 1.7314 1.7339 5.8051 2.2821 9.0526 0.86135 5.1021 1.1577 5.9047 2.1806 5.9047 0.65105 0 6.361-0.89849 12.689-1.9966 17.375-3.0152 23.047-2.6399 30.678 2.0299 6.1398 3.757 9.6802 9.6826 10.972 18.364l0.40322 2.7096h4.6571c19.64 0 37.621 11.979 42.839 28.54 0.54672 1.735 2.525 11.105 4.3963 20.822 1.8712 9.7169 5.7903 29.989 8.7089 45.049 5.933 30.614 6.3622 35.128 4.1084 43.203-3.55 12.719-13 22.349-27.123 27.639-4.2471 1.5909-4.9684 2.0564-4.8989 3.1618 0.0449 0.71297 0.28606 3.2216 0.53626 5.5747 1.4288 13.438-6.8955 24.344-21.505 28.173-1.8652 0.48893-7.9818 1.6582-13.592 2.5984-5.6105 0.94022-10.34 1.8364-10.509 1.9915-0.16928 0.1551 0.14903 1.9484 0.70738 3.9851 1.2906 4.7081 1.301 11.781 0.0232 15.772-3.3923 10.596-13.384 18.409-25.634 20.045-4.162 0.55588-5.7807 0.51325-10.096-0.26578-6.9086-1.2472-11.337-3.3808-16.254-7.8303-6.9162-6.2596-10.529-15.156-9.7147-23.919 0.19212-2.0662 1.9073-9.9232 3.8116-17.46 3.8693-15.314 6.2589-27.49 7.3407-37.404 0.91617-8.3966 0.40035-10.688-4.3643-19.389-7.0198-12.819-15.858-23.5-30.928-37.376-11.18-10.295-22.269-18.92-33.715-26.226-4.8459-3.0931-7.8179-5.3727-8.0115-6.1451-0.16927-0.6754-2.1259-10.469-4.3481-21.764-2.2222-11.295-4.3105-21.392-4.6408-22.438-1.6339-5.1756-8.0351-11.599-14.196-14.244-3.1805-1.3658-4.3126-1.5373-10.118-1.5327-6.1704 6e-3 -6.7711 0.11266-10.721 1.9242-8.8644 4.0655-14.803 12.752-14.803 21.654 0 1.1742 1.0081 7.2583 2.2402 13.52 1.2321 6.262 2.3811 12.412 2.5533 13.667l0.31313 2.2818-8.5191 1.6164c-4.6855 0.88905-8.6019 1.5308-8.7031 1.4262-0.10122-0.10467-1.7781-8.2765-3.7266-18.16-3.9113-19.84-4.7474-22.223-9.3931-26.774-15.653-15.334-43.866-5.3911-43.866 15.459 0 1.8204 1.8209 12.283 4.0465 23.251 2.2256 10.968 4.0465 20.162 4.0465 20.432 0 0.2699-1.3307 1.0777-2.957 1.7951-1.6264 0.71741-5.2923 2.5862-8.1464 4.153-2.8542 1.5667-5.2696 2.7637-5.3677 2.6598-0.0981-0.10381-1.2121-5.3228-2.4754-11.598-5.3681-26.663-5.93-29.032-7.6064-32.068-2.1368-3.87-7.2936-8.3466-11.887-10.319-3.1412-1.3489-4.3462-1.5379-9.8066-1.5379-5.6668 0-6.5884 0.15798-10.272 1.7607-9.0882 3.9545-14.941 12.391-14.941 21.537 0 1.5438 3.6668 21.064 8.1485 43.377 4.4817 22.314 8.6563 43.162 9.2769 46.33 1.3063 6.6687 2.6254 9.3416 6.2479 12.661 8.1425 7.4612 22.251 8.4926 32.274 2.3593 3.5473-2.1707 6.9319-5.5053 8.2228-8.1015 0.57529-1.157 0.38678-1.9286-1.1601-4.7484-2.7789-5.0654-6.1567-13.702-8.2906-21.199-1.5181-5.3334-1.853-7.521-1.6441-10.74 0.40416-6.2248 1.5709-7.8486 8.8668-12.341 19.274-11.867 41.247-19.084 82.103-26.968 5.7815-1.1156 12.51-2.183 14.951-2.3722l4.4397-0.34388 8.0824 3.8005c24.304 11.429 51.867 32.695 67.939 52.419 9.3501 11.475 13.914 19.889 13.914 25.652 0 7.465-3.4499 25.897-7.5524 40.35-11.359 40.018-29.842 71.93-59.275 102.34l-6.13 6.3332 0.39249 12.835c1.4337 46.88 6.9052 107.39 17.835 197.24l3.1408 25.82-5.6417 5.5889c-25.625 25.385-55.758 37.365-96.847 38.503-4.7935 0.13284-10.116 0.15031-11.828 0.0389zm-104.27-425.63c5.5621-1.7115 10.891-6.3792 14.172-12.414l1.2406-2.2818-8.2477-41.358c-4.5362-22.747-8.4942-42.513-8.7956-43.925-0.52612-2.4646-0.72149-2.6467-4.8932-4.5636-4.1059-1.8866-4.6888-1.9962-10.583-1.989-5.4157 8e-3 -6.6892 0.20317-9.6619 1.4914-9.9123 4.2958-15.563 12.455-15.563 22.47 0 2.729 1.6242 12.311 4.7038 27.75 2.587 12.97 5.4043 27.146 6.2605 31.504 0.85625 4.3574 2.0578 9.1305 2.67 10.607 4.6497 11.213 16.502 16.463 28.698 12.71z" stroke-width=".59593"/>
  <path transform="scale(1.0711 .93366)" d="m31.308 991.12v-33.38l49.715-99.193h-49.715v-33.143h86.646v32.433l-49.715 99.193h49.715v34.09zm95.642-165.72h34.09l37.641 128.31-12.547 37.404h-11.127zm60.841 44.033 13.021-44.033h34.09q-0.23674 0.71021-29.119 97.062h-2.3674zm58.948 121.68v-165.72h86.172v33.143h-52.792v33.617h30.539v33.38h-30.539v32.196h52.792v33.38zm105.11 0v-165.72h33.38v165.72zm46.164 0v-33.38q5.2082 0 9.7062-4.2613 3.3143-3.7878 3.5511-8.996v-72.442q0-4.7348-4.0245-9.2328-3.7878-3.7878-9.2328-4.0245v-33.38q26.278 0 39.772 23.437 6.8654 12.074 6.8654 23.2v72.442q0 26.988-23.91 40.245-11.837 6.3919-22.727 6.3919zm65.576 0v-116.47h1.8939l31.486 50.662v65.813zm0-143.94v-21.78h27.225l78.123 125.94v39.772h-15.861zm71.968 26.041v-47.821h33.38v98.483h-1.8939zm50.899 72.205v-120.03h33.38v120.03q0.23674 9.7062 10.89 12.784 1.6572 0.47347 2.3674 0.47347v33.617q-13.731 0-27.462-9.7062-18.939-13.968-19.176-37.168zm59.421 46.874v-33.617q4.2613 0 8.996-4.0245 4.0245-3.7878 4.2613-9.2328v-120.03h33.143v120.03q0 26.751-23.674 40.009-11.837 6.8654-22.727 6.8654zm57.764-134.23v-32.67h102.51v32.67h-34.564v133.05h-33.38v-133.05zm115.05 86.883v-77.887q0-12.547 10.653-25.568 14.204-17.045 35.984-17.282v33.38q-9.7062 0.23674-12.784 10.89-0.47348 1.6572-0.47348 2.3674v74.099q0 9.7062 10.653 13.257 1.6572 0.47347 2.3674 0.47347v33.617q-13.494 0-26.988-9.7062-19.176-14.204-19.412-37.641zm59.421 47.347v-33.617q3.7878 0 8.5225-4.0245 4.498-4.0245 4.7348-9.7062v-74.099q0-4.2613-4.0245-8.996-3.7878-4.0245-9.2328-4.2613v-33.38q23.91 0 38.351 20.596 8.2858 11.837 8.2858 22.253v77.887q0 26.278-23.437 40.245-12.31 7.1021-23.2 7.1021z" stroke="#fff" stroke-linejoin="round" stroke-width="3.0679" aria-label="ZVEDNUTO"/>
 </g>
</svg>
